<svg xmlns="http://www.w3.org/2000/svg" xmlns:xlink="http://www.w3.org/1999/xlink" fill="none" version="1.1" width="150" height="150" viewBox="0 0 150 150"><g><g><rect x="0" y="0" width="150" height="150" rx="16" fill="#FFA871" fill-opacity="1"/></g><g><g transform="matrix(0.7923609614372253,0.6100525856018066,-0.6045855283737183,0.7965402603149414,28.210592525311654,-19.531684187792962)"><path d="M42.688772201538086,34.80242C42.688772201538086,33.25468,43.66461620153809,32,44.86838220153808,32L95.49367220153809,32L95.49367220153809,37.60483L44.86838220153808,37.60483C43.66461620153809,37.60483,42.688772201538086,36.35015,42.688772201538086,34.80242Z" fill="#FAFCFF" fill-opacity="1"/></g><g><g><path d="M43.4127,59.041926314819335C44.221900000000005,59.851128314819334,44.4597,60.204458314819334,44.4597,61.31395831481934C43.8387,62.439308314819336,43.0944,63.284418314819334,42.1605,64.18798831481934C40.108599999999996,66.33864831481934,39.7268,68.78203831481933,39.2043,71.56723831481933C39.421099999999996,71.46473831481933,39.6379,71.36213831481933,39.8613,71.25653831481934C40.4209,71.22173831481933,40.982,71.20643831481934,41.5428,71.20033831481933C41.899100000000004,71.19593831481933,42.2554,71.19143831481934,42.6225,71.18683831481934C43.015299999999996,71.18353831481933,43.408100000000005,71.18023831481933,43.8127,71.17693831481934C44.2251,71.17233831481934,44.6375,71.16783831481933,45.0624,71.16313831481934C48.8772,71.12253831481934,52.6924,71.10213831481934,56.5075,71.08613831481934C59.3241,71.07403831481933,62.1402,71.05293831481933,64.9565,71.01943831481934C66.9402,70.99673831481934,68.9237,70.98483831481934,70.9075,70.98083831481934C72.0901,70.97803831481934,73.2722,70.97063831481934,74.4547,70.95143831481934C83.5998,70.80893831481933,83.5998,70.80893831481933,87.4879,74.05293831481933C88.0858,74.43553831481934,88.69,74.80943831481933,89.3012,75.17283831481933C90.8215,76.11933831481934,92.3371,77.07263831481933,93.8511,78.02823831481933C94.5012,78.43723831481934,95.1525,78.84453831481933,95.8051,79.25003831481934C96.7571,79.84203831481933,97.7047,80.43973831481934,98.6516,81.03893831481933C98.9445,81.21923831481934,99.2373,81.39953831481934,99.539,81.58523831481934C99.8069,81.75653831481934,100.0748,81.92783831481934,100.3508,82.10423831481934C100.5871,82.25243831481933,100.8234,82.40063831481933,101.0669,82.55323831481934C101.937,83.36803831481933,101.9291,84.24173831481934,101.9617,85.35663831481934C101.9538,85.60913831481933,101.9458,85.86163831481933,101.9375,86.12183831481934C101.8142,91.66073831481933,102.3115,96.28333831481933,106.3448,100.60733831481934C106.8872,101.12623831481935,106.8872,101.12623831481935,107.6728,101.62803831481934C108.6831,102.47233831481934,109.1694,103.38413831481934,109.7205,104.52143831481933C109.9437,104.96523831481935,110.1679,105.40863831481934,110.3928,105.85163831481933C110.5111,106.08553831481933,110.6295,106.31943831481934,110.7514,106.56043831481934C111.1576,107.33783831481934,111.5869,108.09983831481934,112.0248,108.86163831481934C112.174,109.12193831481935,112.3232,109.38223831481933,112.4769,109.65043831481933C112.7681,110.15613831481934,113.0618,110.66053831481933,113.3582,111.16353831481933C114.1627,112.57193831481933,114.6729,113.74393831481933,114.75,115.37673831481933C114.376,116.36353831481934,114.0734,117.00293831481935,113.2104,117.66823831481933C112.0683,117.96013831481935,110.971,118.13863831481933,109.8231,117.86243831481934C108.3096,116.81223831481934,107.4931,115.90273831481935,106.6283,114.29773831481933C106.5249,114.10983831481934,106.4214,113.92183831481933,106.3148,113.72823831481934C105.9883,113.13393831481935,105.6677,112.53703831481934,105.3479,111.93953831481934C105.025,111.34133831481934,104.7009,110.74373831481934,104.3738,110.14763831481935C104.0781,109.60793831481934,103.7867,109.06603831481934,103.4956,108.52413831481934C102.6175,107.11483831481934,101.5876,106.29173831481933,100.1246,105.44873831481934C99.693,105.19823831481933,99.693,105.19823831481933,99.2528,104.94263831481933C98.954,104.77163831481934,98.6554,104.60063831481934,98.3476,104.42433831481934C98.0603,104.25813831481933,97.773,104.09193831481934,97.477,103.92063831481934C96.8759,103.57293831481934,96.272,103.22953831481934,95.6657,102.88993831481935C94.714,102.32713831481934,94.714,102.32713831481934,93.77,101.65013831481934C90.5212,99.43273831481935,87.6344,99.52543831481933,83.7517,99.60843831481934C79.6192,99.66593831481933,76.0132,99.54423831481934,72.0503,98.28793831481934C71.53790000000001,98.13213831481934,71.0253,97.97693831481934,70.51259999999999,97.82203831481934C68.53739999999999,97.22053831481934,66.5689,96.60033831481934,64.6015,95.97653831481934C61.1959,94.89903831481934,57.8534,93.92623831481933,54.3135,93.31663831481933C54.3892,92.96123831481933,54.3892,92.96123831481933,54.4665,92.59863831481934C54.8355,90.84133831481934,55.1081,89.20473831481934,54.9704,87.41323831481934C54.7536,87.20813831481934,54.5368,87.00313831481934,54.3135,86.79183831481933C53.458600000000004,86.89133831481934,53.458600000000004,86.89133831481934,52.6712,87.10253831481933C52.5954,87.38133831481933,52.5196,87.66003831481933,52.441500000000005,87.94723831481934C48.8598,100.91053831481933,48.8598,100.91053831481933,42.424800000000005,104.94023831481934C40.3952,106.02853831481934,38.2124,106.84663831481933,36.0237,107.60303831481934C32.8036,108.77933831481934,31.69586,111.40373831481934,30.3288,114.21983831481933C29.5683,115.74543831481934,28.70737,117.07913831481935,27.05135,117.86243831481934C24.8136,118.07403831481933,24.8136,118.07403831481933,23.82449,117.53713831481934C22.72056,116.67743831481934,22.183162,116.11683831481933,22,114.77713831481934C22.0298358,113.04353831481933,22.979638,111.57123831481934,23.78728,110.05593831481934C24.03724,109.57903831481934,24.03724,109.57903831481934,24.29224,109.09253831481934C24.62321,108.46363831481933,24.95619,107.83573831481934,25.29133,107.20883831481933C25.657420000000002,106.51753831481933,26.00884,105.82323831481933,26.3508,105.12103831481934C27.43519,103.00313831481934,28.68946,101.64443831481933,30.548769999999998,100.13803831481934C33.4112,97.79273831481933,34.7692,94.63963831481934,35.2628,91.14173831481934C35.600899999999996,86.36693831481934,34.950900000000004,81.92793831481933,33.6423,77.32383831481934C32.2463,72.32563831481934,32.5252,67.32873831481933,35.1807,62.750978314819335C36.8916,60.23520831481934,40.1008,57.16214831481933,43.4127,59.041926314819335Z" fill="#FAFCFF" fill-opacity="1"/></g><g><path d="M101.87040381469727,38.62160796554199C101.88250381469726,39.00308105554199,101.89460381469726,39.38455305554199,101.90700381469726,39.77758505554199C101.95280381469726,41.18838505554199,102.00060381469726,42.59910505554199,102.04990381469727,44.00981505554199C102.07080381469726,44.621235055541995,102.09090381469727,45.23266505554199,102.11010381469727,45.844125055541994C102.13790381469727,46.721325055541996,102.16860381469726,47.59840505554199,102.19990381469727,48.475505055541994C102.22640381469726,49.26818505554199,102.22640381469726,49.26818505554199,102.25350381469727,50.07678505554199C102.19730381469726,51.24358505554199,102.19730381469726,51.24358505554199,102.83450381469726,51.70958505554199C103.69700381469727,51.78338505554199,104.55980381469726,51.85548505554199,105.42350381469727,51.91718505554199C109.05740381469727,52.20158505554199,111.94180381469727,52.51278505554199,114.40330381469727,55.08708505554199C115.03850381469726,55.933085055541994,115.66030381469727,56.78698505554199,116.27120381469726,57.646685055541994C119.05330381469727,61.49208505554199,123.06420381469727,62.42248505554199,127.90030381469727,63.53098505554199C128.13660381469725,69.890285055542,128.13660381469725,69.890285055542,125.76120381469727,72.344185055542C123.93980381469726,73.66708505554199,122.59060381469726,73.716085055542,120.29880381469727,73.73778505554199C119.75110381469727,73.74788505554199,119.20330381469726,73.75788505554199,118.63900381469728,73.768285055542C117.48800381469727,73.78638505554198,116.33680381469726,73.799585055542,115.18570381469726,73.80788505554199C111.03060381469726,73.87948505554199,111.03060381469726,73.87948505554199,107.65480381469726,75.77458505554199C106.94830381469727,76.45358505554199,106.94830381469727,76.45358505554199,106.51000381469727,77.146685055542C106.25150381469726,77.52978505554199,105.99300381469726,77.912985055542,105.72670381469726,78.307685055542C103.79240381469727,77.70008505554199,102.20920381469726,76.883885055542,100.50530381469727,75.881685055542C100.24040381469726,75.72668505554199,99.97540381469727,75.57158505554199,99.70250381469727,75.411785055542C98.84690381469727,74.910185055542,97.99360381469727,74.405785055542,97.14050381469727,73.90108505554198C96.55340381469726,73.55538505554199,95.96630381469727,73.20988505554199,95.37910381469726,72.86448505554199C93.94380381469726,72.01928505554199,92.51070381469727,71.17148505554199,91.07797381469726,70.32288505554199C89.97488381469726,69.670685055542,88.86894381469726,69.022085055542,87.76340381469727,68.37298505554199C87.07272381469727,67.96428505554199,86.38228381469726,67.55538505554199,85.69216381469727,67.14598505554198C85.38314381469726,66.964785055542,85.07413381469726,66.78358505554199,84.75575381469727,66.59688505554199C83.39145381469727,65.779985055542,82.55529681469727,65.175385055542,81.62500381469727,63.953185055541994C82.09662481469726,63.68458505554199,82.09662481469726,63.68458505554199,82.57777381469727,63.41058505554199C87.09156381469727,60.75748505554199,91.05468381469727,57.402685055541994,92.22970381469726,52.55398505554199C92.27620381469727,51.99028505554199,92.30380381469726,51.42528505554199,92.31450381469726,50.86028505554199C92.56070381469726,43.06900505554199,92.56070381469726,43.06900505554199,95.37610381469726,40.47694505554199C97.61920381469727,38.762096055541996,98.94160381469726,38.574104055541994,101.87040381469727,38.62160796554199Z" fill="#FAFCFF" fill-opacity="1"/></g></g></g></g></svg>