<svg xmlns="http://www.w3.org/2000/svg" xmlns:xlink="http://www.w3.org/1999/xlink" fill="none" version="1.1" width="86.1732177734375" height="25.54376220703125" viewBox="0 0 86.1732177734375 25.54376220703125"><g><g><path d="M13.7029,18.275646021728516L11.9879,18.275646021728516Q11.6587,18.275646021728516,11.6587,17.941286021728516L11.6587,14.492006021728516L10.4114,14.492006021728516L10.4114,17.413336021728515Q10.4114,17.624516021728518,10.3508,17.686106021728516Q10.2902,17.747696021728515,10.0996,17.747696021728515L8.45388,17.747696021728515Q8.26332,17.747696021728515,8.18536,17.703706021728514Q8.10741,17.659706021728518,8.10741,17.413336021728515L8.10741,9.159709021728515Q8.10741,8.966126021728515,8.18536,8.904532021728516Q8.26332,8.842938021728516,8.45388,8.842938021728516L10.0996,8.842938021728516Q10.4114,8.842938021728516,10.4114,9.159709021728515L10.4114,12.520996021728516L11.6587,12.520996021728516L11.6587,8.878135021728516Q11.6587,8.684554021728516,11.7367,8.614159121728516Q11.8146,8.543766021728516,12.0052,8.543766021728516L13.7029,8.543766021728516Q13.8935,8.543766021728516,13.9628,8.614159121728516Q14.032,8.684554021728516,14.032,8.878135021728516L14.032,17.941286021728516Q14.032,18.134866021728516,13.9628,18.205256021728516Q13.8935,18.275646021728516,13.7029,18.275646021728516ZM8.43655,25.543766021728516Q7.25855,25.543766021728516,6.2278,25.306166021728515Q5.19705,25.068566021728515,4.4175,24.619866021728516Q3.63794,24.171066021728514,3.18753,23.537566021728516Q2.73712,22.903966021728515,2.73712,22.094466021728515Q2.73712,21.302566021728516,3.18753,20.677866021728516Q3.63794,20.053066021728515,4.4175,19.604366021728517Q5.19705,19.155566021728518,6.2278,18.917966021728517Q7.25855,18.680366021728517,8.43655,18.680366021728517Q9.52793,18.680366021728517,10.5673,18.917966021728517Q11.6068,19.155566021728518,12.4036,19.595566021728516Q13.2005,20.035466021728517,13.6856,20.669066021728515Q14.1706,21.302566021728516,14.1706,22.094466021728515Q14.1706,22.903966021728515,13.6856,23.537566021728516Q13.2005,24.171066021728514,12.4036,24.619866021728516Q11.6068,25.068566021728515,10.5673,25.306166021728515Q9.52793,25.543766021728516,8.43655,25.543766021728516ZM8.43655,20.633866021728515Q7.74361,20.633866021728515,7.14595,20.748266021728515Q6.54829,20.862566021728515,6.1152,21.073766021728517Q5.68211,21.284966021728515,5.43958,21.557766021728515Q5.19705,21.830466021728515,5.19705,22.147266021728516Q5.19705,22.464066021728513,5.43958,22.728066021728516Q5.68211,22.991966021728516,6.1152,23.185566021728516Q6.54829,23.379166021728516,7.14595,23.484766021728518Q7.74361,23.590366021728514,8.43655,23.590366021728514Q8.9909,23.590366021728514,9.57124,23.511166021728513Q10.1516,23.431966021728513,10.628,23.255966021728515Q11.1044,23.079966021728517,11.4075,22.807266021728516Q11.7107,22.534466021728516,11.7107,22.147266021728516Q11.7107,21.830466021728515,11.4422,21.557766021728515Q11.1737,21.284966021728515,10.7233,21.073766021728517Q10.2728,20.862566021728515,9.67518,20.748266021728515Q9.07752,20.633866021728515,8.43655,20.633866021728515ZM7.06799,17.219746021728515Q6.46167,17.360536021728514,5.73408,17.457326021728516Q5.0065,17.554116021728518,4.25292,17.606916021728516Q3.49935,17.659706021728518,2.7631,17.677306021728516Q2.02685,17.694906021728514,1.43785,17.659706021728518Q0.710264,17.624516021728518,0.355132,17.307746021728516Q0,16.990966021728518,0,16.269436021728517L0,10.602776021728516Q0,10.250806021728515,0.0519705,10.030826021728515Q0.103941,9.810846021728516,0.233867,9.687656021728516Q0.363794,9.564466021728515,0.597661,9.520475021728515Q0.831529,9.476479021728515,1.19532,9.476479021728515L6.16717,9.476479021728515Q6.51364,9.476479021728515,6.51364,9.775656021728516L6.51364,11.183516021728515Q6.51364,11.482686021728515,6.16717,11.482686021728515L2.61585,11.482686021728515Q2.44262,11.482686021728515,2.40797,11.553086021728516Q2.37332,11.623476021728516,2.37332,11.729066021728515L2.37332,15.389526021728516Q2.37332,15.583106021728515,2.43395,15.635896021728517Q2.49459,15.688696021728514,2.70247,15.706296021728516Q3.11823,15.723886021728514,3.62062,15.706296021728516Q4.123,15.688696021728514,4.66003,15.635896021728517Q5.19705,15.583106021728515,5.73408,15.512706021728516Q6.27111,15.442316021728516,6.72152,15.354326021728514Q6.94673,15.319126021728515,7.02469,15.363126021728515Q7.10264,15.407116021728516,7.13729,15.600706021728517L7.34517,16.832586021728517Q7.37982,17.026166021728514,7.31919,17.105356021728518Q7.25855,17.18455602172852,7.06799,17.219746021728515ZM29.987,18.275646021728516L28.272,18.275646021728516Q27.9428,18.275646021728516,27.9428,17.941286021728516L27.9428,14.492006021728516L26.6955,14.492006021728516L26.6955,17.413336021728515Q26.6955,17.624516021728518,26.6349,17.686106021728516Q26.5743,17.747696021728515,26.3837,17.747696021728515L24.738,17.747696021728515Q24.5474,17.747696021728515,24.4695,17.703706021728514Q24.3915,17.659706021728518,24.3915,17.413336021728515L24.3915,9.159709021728515Q24.3915,8.966126021728515,24.4695,8.904532021728516Q24.5474,8.842938021728516,24.738,8.842938021728516L26.3837,8.842938021728516Q26.6955,8.842938021728516,26.6955,9.159709021728515L26.6955,12.520996021728516L27.9428,12.520996021728516L27.9428,8.878135021728516Q27.9428,8.684554021728516,28.0208,8.614159121728516Q28.0987,8.543766021728516,28.2893,8.543766021728516L29.987,8.543766021728516Q30.1776,8.543766021728516,30.2469,8.614159121728516Q30.3162,8.684554021728516,30.3162,8.878135021728516L30.3162,17.941286021728516Q30.3162,18.134866021728516,30.2469,18.205256021728516Q30.1776,18.275646021728516,29.987,18.275646021728516ZM24.7207,25.543766021728516Q23.5427,25.543766021728516,22.5119,25.306166021728515Q21.4812,25.068566021728515,20.7016,24.619866021728516Q19.922,24.171066021728514,19.4716,23.537566021728516Q19.0212,22.903966021728515,19.0212,22.094466021728515Q19.0212,21.302566021728516,19.4716,20.677866021728516Q19.922,20.053066021728515,20.7016,19.604366021728517Q21.4812,19.155566021728518,22.5119,18.917966021728517Q23.5427,18.680366021728517,24.7207,18.680366021728517Q25.812,18.680366021728517,26.8515,18.917966021728517Q27.8909,19.155566021728518,28.6877,19.595566021728516Q29.4846,20.035466021728517,29.9697,20.669066021728515Q30.4547,21.302566021728516,30.4547,22.094466021728515Q30.4547,22.903966021728515,29.9697,23.537566021728516Q29.4846,24.171066021728514,28.6877,24.619866021728516Q27.8909,25.068566021728515,26.8515,25.306166021728515Q25.812,25.543766021728516,24.7207,25.543766021728516ZM24.7207,20.633866021728515Q24.0277,20.633866021728515,23.4301,20.748266021728515Q22.8324,20.862566021728515,22.3993,21.073766021728517Q21.9662,21.284966021728515,21.7237,21.557766021728515Q21.4812,21.830466021728515,21.4812,22.147266021728516Q21.4812,22.464066021728513,21.7237,22.728066021728516Q21.9662,22.991966021728516,22.3993,23.185566021728516Q22.8324,23.379166021728516,23.4301,23.484766021728518Q24.0277,23.590366021728514,24.7207,23.590366021728514Q25.275,23.590366021728514,25.8553,23.511166021728513Q26.4357,23.431966021728513,26.9121,23.255966021728515Q27.3885,23.079966021728517,27.6916,22.807266021728516Q27.9948,22.534466021728516,27.9948,22.147266021728516Q27.9948,21.830466021728515,27.7263,21.557766021728515Q27.4578,21.284966021728515,27.0074,21.073766021728517Q26.557,20.862566021728515,25.9593,20.748266021728515Q25.3616,20.633866021728515,24.7207,20.633866021728515ZM23.3521,17.219746021728515Q22.7458,17.360536021728514,22.0182,17.457326021728516Q21.2906,17.554116021728518,20.537,17.606916021728516Q19.7835,17.659706021728518,19.0472,17.677306021728516Q18.311,17.694906021728514,17.722,17.659706021728518Q16.9944,17.624516021728518,16.6392,17.307746021728516Q16.2841,16.990966021728518,16.2841,16.269436021728517L16.2841,10.602776021728516Q16.2841,10.250806021728515,16.3361,10.030826021728515Q16.388,9.810846021728516,16.518,9.687656021728516Q16.6479,9.564466021728515,16.8818,9.520475021728515Q17.1156,9.476479021728515,17.4794,9.476479021728515L22.4513,9.476479021728515Q22.7977,9.476479021728515,22.7977,9.775656021728516L22.7977,11.183516021728515Q22.7977,11.482686021728515,22.4513,11.482686021728515L18.9,11.482686021728515Q18.7267,11.482686021728515,18.6921,11.553086021728516Q18.6574,11.623476021728516,18.6574,11.729066021728515L18.6574,15.389526021728516Q18.6574,15.583106021728515,18.7181,15.635896021728517Q18.7787,15.688696021728514,18.9866,15.706296021728516Q19.4023,15.723886021728514,19.9047,15.706296021728516Q20.4071,15.688696021728514,20.9441,15.635896021728517Q21.4812,15.583106021728515,22.0182,15.512706021728516Q22.5552,15.442316021728516,23.0056,15.354326021728514Q23.2308,15.319126021728515,23.3088,15.363126021728515Q23.3867,15.407116021728516,23.4214,15.600706021728517L23.6293,16.832586021728517Q23.6639,17.026166021728514,23.6033,17.105356021728518Q23.5427,17.18455602172852,23.3521,17.219746021728515ZM37.0204,21.496166021728516Q36.0156,21.496166021728516,35.2187,21.038566021728514Q34.4218,20.581066021728518,33.8588,19.780266021728515Q33.2958,18.979566021728516,32.9926,17.888486021728518Q32.6895,16.797386021728514,32.6895,15.530306021728515Q32.6895,14.210436021728515,32.9926,13.101736021728517Q33.2958,11.993046021728516,33.8675,11.201116021728517Q34.4392,10.409186021728516,35.236,9.960436021728515Q36.0329,9.511675021728516,37.0204,9.511675021728516Q38.233,9.511675021728516,39.1511,10.136416021728515Q40.0693,10.761156021728516,40.6236,11.869856021728516L43.586,11.869856021728516L43.586,8.878135021728516Q43.586,8.684554021728516,43.6466,8.614159121728516Q43.7072,8.543766021728516,43.8978,8.543766021728516L45.6475,8.543766021728516Q45.838,8.543766021728516,45.9073,8.614159121728516Q45.9766,8.684554021728516,45.9766,8.878135021728516L45.9766,25.086166021728516Q45.9766,25.297366021728514,45.9073,25.358966021728516Q45.838,25.420566021728515,45.6475,25.420566021728515L43.8978,25.420566021728515Q43.7072,25.420566021728515,43.6466,25.358966021728516Q43.586,25.297366021728514,43.586,25.086166021728516L43.586,19.173166021728516L40.6063,19.173166021728516Q40.052,20.264266021728517,39.1338,20.880166021728513Q38.2157,21.496166021728516,37.0204,21.496166021728516ZM37.0204,11.658676021728516Q36.5699,11.658676021728516,36.2062,11.949046021728515Q35.8424,12.239416021728516,35.5912,12.749766021728515Q35.34,13.260126021728516,35.2014,13.972856021728516Q35.0628,14.685586021728515,35.0628,15.530306021728515Q35.0628,16.339836021728516,35.2014,17.034966021728515Q35.34,17.730096021728514,35.5912,18.249256021728513Q35.8424,18.768366021728518,36.2062,19.058766021728516Q36.5699,19.349166021728514,37.0204,19.349166021728514Q37.4881,19.349166021728514,37.8605,19.049966021728515Q38.233,18.750766021728516,38.4929,18.240456021728516Q38.7527,17.730096021728514,38.8913,17.026166021728514Q39.0299,16.322236021728514,39.0299,15.530306021728515Q39.0299,14.685586021728515,38.8913,13.972856021728516Q38.7527,13.260126021728516,38.4929,12.749766021728515Q38.233,12.239416021728516,37.8605,11.949046021728515Q37.4881,11.658676021728516,37.0204,11.658676021728516ZM43.586,13.858466021728516L41.2646,13.858466021728516Q41.3339,14.263226021728515,41.3686,14.676786021728516Q41.4032,15.090346021728514,41.4032,15.530306021728515Q41.4032,16.375026021728516,41.2646,17.18455602172852L43.586,17.18455602172852L43.586,13.858466021728516ZM57.8432,20.616266021728514Q57.7046,20.792166021728516,57.5314,20.739466021728518Q57.3582,20.686666021728513,57.133,20.528266021728516Q56.8385,20.317066021728515,56.4487,19.965066021728518Q56.0589,19.613166021728517,55.6345,19.181966021728513Q55.21,18.750766021728516,54.7943,18.266856021728515Q54.3785,17.782896021728515,54.0494,17.325336021728518Q53.1659,18.45163602172852,52.0745,19.463566021728518Q50.9831,20.475466021728515,49.7358,21.284966021728515Q49.5799,21.390566021728517,49.4846,21.372966021728516Q49.3893,21.355366021728514,49.2508,21.179366021728516L48.4366,20.070666021728513Q48.298,19.877066021728517,48.3413,19.762666021728513Q48.3846,19.648366021728513,48.5405,19.542766021728518Q49.5453,18.838766021728517,50.4461,17.976476021728516Q51.3469,17.114156021728515,52.1005,16.163846021728517Q52.8541,15.213536021728515,53.4257,14.210436021728515Q53.9974,13.207326021728516,54.3092,12.204226021728516Q54.4132,11.852256021728515,54.0494,11.852256021728515L49.8398,11.852256021728515Q49.5972,11.852256021728515,49.5539,11.755466021728516Q49.5106,11.658676021728516,49.5106,11.482686021728515L49.5106,10.215606021728515Q49.5106,10.004426021728516,49.5886,9.925236021728516Q49.6665,9.846046021728515,49.8571,9.846046021728515L55.5738,9.846046021728515Q56.2495,9.846046021728515,56.6392,10.145216021728515Q57.029,10.444386021728516,57.029,11.025136021728516Q57.029,11.271506021728516,56.9857,11.500286021728515Q56.9424,11.729066021728515,56.8904,11.940246021728516Q56.6826,12.802566021728516,56.2841,13.700086021728517Q55.8857,14.597596021728515,55.3313,15.512706021728516Q55.6605,16.040656021728516,56.0849,16.533416021728517Q56.5093,17.026166021728514,56.9597,17.474926021728514Q57.4101,17.923686021728514,57.8605,18.302046021728515Q58.311,18.680366021728517,58.6748,18.979566021728516Q58.9692,19.208366021728516,58.6574,19.577966021728514L57.8432,20.616266021728514ZM61.8103,25.420566021728515L60.078,25.420566021728515Q59.8874,25.420566021728515,59.8181,25.358966021728516Q59.7488,25.297366021728514,59.7488,25.086166021728516L59.7488,8.878135021728516Q59.7488,8.684554021728516,59.8181,8.614159121728516Q59.8874,8.543766021728516,60.078,8.543766021728516L61.8103,8.543766021728516Q62.0009,8.543766021728516,62.0702,8.614159121728516Q62.1395,8.684554021728516,62.1395,8.878135021728516L62.1395,25.086166021728516Q62.1395,25.297366021728514,62.0702,25.358966021728516Q62.0009,25.420566021728515,61.8103,25.420566021728515ZM79.6362,22.552066021728514L64.7553,22.552066021728514Q64.5301,22.552066021728514,64.4695,22.446466021728515Q64.4088,22.340866021728516,64.4088,22.182466021728516L64.4088,20.915366021728516Q64.4088,20.721866021728516,64.4695,20.633866021728515Q64.5301,20.545866021728514,64.7553,20.545866021728514L70.9918,20.545866021728514L70.9918,17.413336021728515L67.9948,17.413336021728515Q67.2326,17.413336021728515,66.9034,17.052566021728516Q66.5743,16.691796021728514,66.5743,16.005466021728516L66.5743,10.761156021728516Q66.5743,10.004426021728516,66.8861,9.758056021728516Q67.1979,9.511675021728516,67.9255,9.511675021728516L77.4188,9.511675021728516Q77.7479,9.511675021728516,77.7479,9.846046021728515L77.7479,11.183516021728515Q77.7479,11.377096021728516,77.6786,11.447496021728515Q77.6094,11.517886021728515,77.4188,11.517886021728515L69.2941,11.517886021728515Q68.9996,11.517886021728515,68.9996,11.799456021728515L68.9996,15.143146021728516Q68.9996,15.424716021728516,69.2941,15.424716021728516L77.5054,15.424716021728516Q77.9039,15.424716021728516,77.9039,15.723886021728514L77.9039,17.043766021728516Q77.9039,17.413336021728515,77.5054,17.413336021728515L73.3997,17.413336021728515L73.3997,20.545866021728514L79.6362,20.545866021728514Q80,20.545866021728514,80,20.915366021728516L80,22.182466021728516Q80,22.552066021728514,79.6362,22.552066021728514Z" fill="#FAFCFF" fill-opacity="1"/></g><g transform="matrix(0.8106405735015869,0.5855439901351929,-0.5855439901351929,0.8106405735015869,15.10897976681008,-46.72040546365679)"><g><path d="M84.74974440429688,3.716853462646484C85.19066440429688,4.124432462646484,85.19066440429688,4.124432462646484,85.59192440429688,4.611925462646484C85.72659440429688,4.771045462646485,85.86127440429688,4.930155462646484,86.00002440429688,5.094095462646484C86.34799440429687,5.627935462646485,86.46719440429688,5.986635462646484,86.49972440429687,6.615195462646485C86.22629440429688,7.020105462646484,86.22629440429688,7.020105462646484,85.79973440429687,7.297155462646485C85.08088440429688,7.382905462646484,84.83571440429688,7.352985462646485,84.22475440429687,6.956175462646485C83.56728440429687,6.892115462646484,83.39287440429688,6.928175462646484,82.82477440429687,7.297155462646485C82.20133940429687,7.2651854626464845,82.20133940429687,7.2651854626464845,81.59978440429687,7.126665462646484C81.24978867429688,6.615195462646485,81.24978867429688,6.615195462646485,81.26209321429687,6.049105462646484C81.45521440429688,5.304425462646485,81.73643840429688,4.972105462646485,82.27790440429688,4.4201264626464845C82.43265440429687,4.258813462646485,82.58740440429688,4.097500462646485,82.74684440429688,3.931298462646484C83.47417440429687,3.2770294626464844,83.87921440429687,3.338021962646484,84.74974440429688,3.716853462646484Z" fill="#FAFCFF" fill-opacity="1"/></g><g><path d="M82.70454764648437,0.019446138037109376C83.13110764648438,0.14731373803710937,83.13110764648438,0.14731373803710937,83.48110764648438,0.4882947380371094C83.60274764648437,1.2792877380371093,83.62859764648438,1.9725277380371093,83.17485764648437,2.6513877380371094C82.78110764648437,2.8751577380371094,82.78110764648437,2.8751577380371094,82.42017864648437,2.8858177380371095C81.90774964648438,2.612047738037109,81.77217864648438,2.3839777380371094,81.55612648648437,1.8522177380371094C81.54021484648437,1.3242477380371094,81.56997924648438,0.8235647380371094,81.73112464648437,0.3178047380371094C82.25611764648437,-0.023176461962890624,82.25611764648437,-0.023176461962890624,82.70454764648437,0.019446138037109376Z" fill="#FAFCFF" fill-opacity="1"/></g><g><path d="M84.93328530273438,0.00934343515625C85.35983530273438,0.15852303515625,85.35983530273438,0.15852303515625,85.70983530273438,0.66999403515625C85.79419530273438,1.18889103515625,85.79255530273437,1.68526103515625,85.70983530273438,2.20441103515625C85.35983530273438,2.64129103515625,85.35983530273438,2.64129103515625,85.00984530273438,2.88637103515625C84.15672930273438,2.56670103515625,84.15672930273438,2.56670103515625,83.95985650273437,2.37490103515625C83.93336890273437,2.07020103515625,83.92104930273437,1.76427103515625,83.91610700273438,1.45851103515625C83.90933950273437,1.20863103515625,83.90933950273437,1.20863103515625,83.90243530273438,0.95370003515625C83.95985650273437,0.49950303515625,83.95985650273437,0.49950303515625,84.19706030273437,0.18249803515625C84.48485030273437,-0.01196786484375,84.48485030273437,-0.01196786484375,84.93328530273438,0.00934343515625Z" fill="#FAFCFF" fill-opacity="1"/></g><g><path d="M80.81363233398437,2.0133434898144533C81.29789233398438,2.178470559814453,81.50140233398437,2.2514035598144533,81.77612233398438,2.673993559814453C81.86504233398438,3.3546975598144533,81.87943233398437,3.718307559814453,81.48081233398437,4.293657559814453C81.07612233398437,4.549387559814454,81.07612233398437,4.549387559814454,80.61675733398438,4.538737559814454C80.20113733398438,4.378897559814453,80.20113733398438,4.378897559814453,79.85114173398438,3.867427559814453C79.75374983398437,3.2562275598144534,79.73865753398438,2.693838559814453,80.05895133398438,2.151866559814453C80.37613533398438,1.992032159814453,80.37613533398438,1.992032159814453,80.81363233398437,2.0133434898144533Z" fill="#FAFCFF" fill-opacity="1"/></g><g><path d="M86.86671061523438,2.00439850390625C87.28233061523437,2.16423300390625,87.28233061523437,2.16423300390625,87.63232061523438,2.67570500390625C87.69377061523437,3.23842900390625,87.68525061523438,3.5897990039062497,87.43545061523437,4.10355900390625C87.10733061523437,4.38060900390625,87.10733061523437,4.38060900390625,86.57139661523438,4.45519900390625C86.40175861523437,4.430579003906249,86.23211961523438,4.40596900390625,86.05734061523438,4.38060900390625C85.62327741523437,3.74628900390625,85.62625531523437,3.42620900390625,85.70734451523437,2.67570500390625C86.06628061523438,2.15764500390625,86.21632461523437,1.98931210390625,86.86671061523438,2.00439850390625Z" fill="#FAFCFF" fill-opacity="1"/></g></g></g></svg>